<svg xmlns="http://www.w3.org/2000/svg" xmlns:xlink="http://www.w3.org/1999/xlink" x="0px" y="0px" viewBox="0 0 991.3 769.9" style="enable-background:new 0 0 991.3 769.9;" xml:space="preserve"><style type="text/css">	.insta-gb0{fill:#FFEDC9;}	.insta-gb1{fill:#A7DE5C;}	.insta-gb2{fill:#FAE717;}	.insta-gb3{fill:#F186B1;}	.insta-gb4{fill:#FFFFFF;}	.insta-gb5{fill:none;stroke:#000000;stroke-width:2.8945;stroke-linecap:round;stroke-linejoin:round;stroke-miterlimit:10;}	.insta-gb6{fill:#AB7C4C;}	.insta-gb7{fill:#F44B33;}	.insta-gb8{fill:#005692;}	.insta-gb9{fill:#FE8822;}	.insta-gb10{fill:none;stroke:#000000;stroke-width:3.0875;stroke-linecap:round;stroke-linejoin:round;stroke-miterlimit:10;}</style><g>	<g>		<g>			<path class="insta-gb0" d="M634.4,353.4c9.2-11.6,22-2.3,15.8,11.1c-6.2,13.4-20,19.6-20,19.6S625.2,365,634.4,353.4z"></path>			<path class="insta-gb1" d="M638.4,565.8c6.9,5.2,9.9,16.5,0,16.8c-9.9,0.3-23-15.1-26.3-20.7C612.1,561.9,631.5,560.6,638.4,565.8z"></path>			<path class="insta-gb1" d="M610.8,287c6.1-1.1,13.5-1.4,14.5-0.2c1.7,2.1-4.2,19.6-6.3,19.5c-1.2-0.1-6.4-4.3-10.7-8.4    c-3.3-3.2-6-6.3-5.9-7.5c0,0,0-0.1,0-0.1C602.7,289,606.5,287.8,610.8,287z"></path>			<path class="insta-gb2" d="M624.3,251.2c-11.9,13.8-2,26.6-13.5,35.8c-4.3,0.8-8.1,2-8.4,3.2c0-1.1-1.9-3.2-4.4-5.3c0,0,0,0,0,0    C590.8,275.6,596.1,254.2,624.3,251.2z"></path>			<path class="insta-gb2" d="M608.3,297.8c0.8,20.7-11.9,21-12.8,22.4c-0.9,1.4,3.6,19.7-18.9,26.4c-0.6-2.7-2.2-5.9-6.1-8.5    c1.3-20.5,16.5-20.6,17.1-22.3c0.6-1.7-4.3-11.4,1.1-20c6.3-1.9,13.3-4.4,13.7-5.5C602.2,291.5,604.9,294.7,608.3,297.8    L608.3,297.8z"></path>			<path class="insta-gb1" d="M588.7,295.8c-5.1,1.5-9.9,2.5-10.5,1.9c-1.4-1.5,1.7-20.4,5.5-20.7c2.5-0.2,9.5,4.1,14.2,8c0,0,0,0,0,0    c2.6,2.1,4.4,4.2,4.4,5.3c0,0,0,0.1,0,0.1C602,291.4,595.1,293.9,588.7,295.8z"></path>			<path class="insta-gb3" d="M588.6,566.5c1.4,4.1-14.6,10.1-37.1,12.6c-10.7,1.2-22.9,1.6-35.4,0.7c-12.6-0.9-24.7-3.7-35.1-7.2    c-20.2-6.7-34-15.7-32.9-17.6c1.4-2.6,8.3-18.8,16.2-39.9h0c22.7,11,73,14.5,109.2,1.3C579.7,539.9,586,558.7,588.6,566.5z"></path>			<path class="insta-gb0" d="M586.8,386.4c0,6.4-8.6,10.8-14.6,8.9l-0.1,0c0.7-3.1,1.2-6.3,1.5-9.5c0.3-3.6,0.3-7.1,0-10.5    C577.5,374.4,586.7,378.7,586.8,386.4z"></path>			<path class="insta-gb1" d="M576.9,349.7c0,6.3-7.9,7.7-10.2,4h0c-1.9-3.3-4.2-6.4-6.8-9.1c-2-3,2.2-11.3,9.1-7.5c0.5,0.3,1,0.6,1.5,0.9    c3.9,2.6,5.5,5.9,6.1,8.5C576.8,347.8,576.9,348.9,576.9,349.7z"></path>			<path class="insta-gb0" d="M573.5,375.2c0.3,3.4,0.3,7,0,10.5c-0.3,3.3-0.8,6.4-1.5,9.5c-2.5,11-7.3,20.8-14.5,28.2    c-5,5.2-11.2,9.2-18.4,11.7c0,0,0,0,0,0c-6.6,2.2-14,3.2-22.3,2.6c-5-0.4-9.4-1.3-13.4-2.7c-5.2-1.8-9.7-4.5-13.4-7.6    c-8.4-7.1-13.3-16.8-15.8-26.4c-1.6-6-2.2-12-2.1-17.1c0-1.5,0.1-3.1,0.3-4.8c18.2-0.4,37.4-10.7,46.8-19.1    c-2.2,5.7-4.4,12.2-5.9,15.1c8.4-2.1,20.4-6,25.8-17.3C543.1,364.6,557.5,376.7,573.5,375.2L573.5,375.2z M537.9,392.4    c2.3-1.8,1.1-5.1-1.4-5.6c-2.5-0.6-4.4,1.6-3.9,3.4C533.1,392.4,535.8,394,537.9,392.4z M509.6,392c1-2.4-0.9-4.6-2.7-4.4    c-2.3,0.2-4.3,2.6-3.1,4.9C505.2,395.1,508.6,394.4,509.6,392z"></path>			<path class="insta-gb2" d="M478.9,359c2.4-4.4,5.4-8.6,9.2-12.3c8-7.9,19.3-13.8,34.7-15.3c15.3-1.5,28.1,4,37.1,13.4    c2.6,2.7,4.9,5.8,6.8,9.1c3.7,6.4,6,13.7,6.8,21.4c-16,1.5-30.3-10.5-34.3-17.4c-5.4,11.3-17.5,15.3-25.8,17.3    c1.5-2.9,3.7-9.4,5.9-15.1c-9.4,8.5-28.6,18.8-46.8,19.1C473.2,372.7,475.2,365.7,478.9,359C478.9,359,478.9,359,478.9,359z"></path>			<path class="insta-gb4" d="M570.7,505.9c0.9,3.6,1.8,7.1,2.7,10.5c-36.2,13.2-86.5,9.7-109.2-1.3c1.4-3.7,2.8-7.6,4.2-11.6    C496.8,513.4,534.9,513.1,570.7,505.9L570.7,505.9z"></path>			<path class="insta-gb3" d="M557.5,423.4c0.9,26.8,6.7,56.7,13.2,82.5c-35.8,7.2-73.9,7.5-102.2-2.4c9-25.1,18.2-54.5,21.5-76.2    c3.8,3.2,8.2,5.8,13.4,7.6c-1.8,5.1-1.5,15,0,17.9c1.5,3,33.2,3.9,35.7,2.6c2.5-1.3,0.1-19.9,0-20.4c0,0,0,0,0,0    C546.4,432.6,552.5,428.6,557.5,423.4z"></path>			<path class="insta-gb0" d="M539.2,435.1c0.1,0.6,2.5,19.1,0,20.4c-2.6,1.3-34.2,0.3-35.7-2.6c-1.5-3-1.8-12.8,0-17.9    c4,1.4,8.5,2.4,13.4,2.7C525.2,438.3,532.6,437.4,539.2,435.1z"></path>			<path class="insta-gb4" d="M536.5,386.8c2.5,0.6,3.7,3.8,1.4,5.6c-2.1,1.6-4.8,0-5.3-2.2C532.2,388.4,534,386.2,536.5,386.8z"></path>			<path class="insta-gb4" d="M506.9,387.6c1.8-0.2,3.7,2,2.7,4.4c-1,2.4-4.3,3.1-5.8,0.5C502.6,390.2,504.6,387.8,506.9,387.6z"></path>			<path class="insta-gb1" d="M478.8,339.4c6.1-0.8,11.6,4.6,9.3,7.2c-3.8,3.8-6.9,8-9.2,12.3c0,0,0,0,0,0.1c-1.6,2-11-1.9-9.7-9.6    c0.3-1.5,0.9-3.1,2.1-4.9C473.5,341.2,476.2,339.8,478.8,339.4z"></path>			<path class="insta-gb0" d="M472.5,379.1c-0.2,1.6-0.3,3.3-0.3,4.8c-0.1,5.2,0.5,11.1,2.1,17.1c-6.5,3.5-16.3-0.4-17.7-8.4    C455.1,384.6,465.2,376.9,472.5,379.1z"></path>			<path class="insta-gb2" d="M478.8,339.4c-2.6,0.3-5.4,1.8-7.6,5.1c-1.2,1.8-1.8,3.4-2.1,4.9h0c-20.1-2.8-17.1-19-17.5-21.1    c-0.4-2.1-15.5,0.9-11.4-23.7c2.6-3.6,4.5-6.7,4.1-7.3c0.4,1.1,4.6,2.1,9.2,2.9c12,9.4,7.5,21,8.8,23.1    C463.8,325.4,475.1,322.2,478.8,339.4z"></path>			<path class="insta-gb1" d="M453.6,300.2c-4.7-0.7-8.9-1.8-9.2-2.9c-0.4-1.2,1.9-4.3,4.9-7.4c4.4-4.4,10.3-9,11.8-8.6    c2.6,0.7,7.8,18.4,6,19.5C466.2,301.5,459.5,301.1,453.6,300.2z"></path>			<path class="insta-gb2" d="M448.8,245.2c10,20.6,3.2,39.8,0.6,44.8c-3.1,3.1-5.4,6.1-4.9,7.4c-0.6-0.8-2.8-1.4-5.7-1.7h0    C426.1,287.1,425.4,264.1,448.8,245.2z"></path>			<path class="insta-gb1" d="M438.7,295.6c2.9,0.3,5.1,0.9,5.7,1.7c0.4,0.5-1.5,3.7-4.1,7.3c-4.2,5.8-10.2,12.9-11.4,12.6    c-2-0.4-10.3-17.7-7.3-20.1C423.6,295.5,432.6,295,438.7,295.6L438.7,295.6z"></path>			<path class="insta-gb1" d="M429.2,563.5c0,0-3,25.5-9.7,31.4c-6.7,5.9-14.3-1.3-9.7-10.5C414.5,575.3,429.2,563.5,429.2,563.5z"></path>			<path class="insta-gb0" d="M415.2,358.5c0.8,10-9.5,24.8-9.5,24.8s-7.9-7.6-10.8-24.8C391.9,341.2,413.6,337.7,415.2,358.5z"></path>		</g>		<g>			<path class="insta-gb5" d="M522.9,331.3c32.3-3.1,53.4,24.8,50.6,54.4c-2.9,30.5-22.6,54.5-56.6,52c-35.1-2.6-45.2-34-44.8-53.8    C472.5,364.1,485.9,334.9,522.9,331.3z"></path>			<path class="insta-gb5" d="M472.5,379.1c-7.3-2.2-17.3,5.5-16,13.5c1.4,8,11.2,11.8,17.7,8.4"></path>			<path class="insta-gb5" d="M573.5,375.2c4-0.8,13.2,3.6,13.3,11.2c0,6.4-8.6,10.8-14.6,8.9"></path>			<path d="M506.9,387.6c1.8-0.2,3.7,2,2.7,4.4c-1,2.4-4.3,3.1-5.8,0.5C502.5,390.2,504.6,387.8,506.9,387.6z"></path>			<path d="M532.6,390.1c-0.4-1.7,1.4-3.9,3.9-3.4c2.5,0.6,3.7,3.8,1.4,5.6C535.8,394,533.1,392.4,532.6,390.1z"></path>			<path class="insta-gb5" d="M500.6,403.5c1.8,4.8,10.2,16.1,24.1,14.2c15.7-2.1,19.7-15.4,20.5-20.1"></path>			<path class="insta-gb5" d="M472.5,379.1c18.2-0.4,37.4-10.7,46.8-19.1c-2.2,5.7-4.4,12.2-5.9,15.1c8.4-2.1,20.4-6,25.8-17.3    c4,6.9,18.3,18.9,34.3,17.4"></path>			<path class="insta-gb5" d="M559.9,344.7c-2-3.1,2.2-11.3,9.1-7.5c6.9,3.8,7.9,9.5,7.9,12.5c0,6.3-7.9,7.7-10.2,4"></path>			<path class="insta-gb5" d="M602.4,290.3c0,1.7-22.8,8.9-24.1,7.4c-1.4-1.5,1.7-20.4,5.5-20.7C587.6,276.7,602.4,287.1,602.4,290.3z"></path>			<path class="insta-gb5" d="M602.4,290.3c-0.7,2.5,14.5,15.9,16.6,16c2.1,0.1,8-17.4,6.3-19.5C623.6,284.7,603.2,287.2,602.4,290.3z"></path>			<path class="insta-gb5" d="M444.4,297.3c1,1.4-13.6,20.3-15.5,19.9c-2-0.4-10.3-17.7-7.3-20.1C424.5,294.7,442.6,294.7,444.4,297.3z"></path>			<path class="insta-gb5" d="M444.4,297.3c0.9,2.4,21,4.7,22.8,3.6c1.8-1.1-3.4-18.8-6-19.5C458.6,280.7,443.3,294.3,444.4,297.3z"></path>			<path class="insta-gb5" d="M598,285c-7.2-9.4-1.9-30.8,26.3-33.7c-11.9,13.8-2,26.6-13.5,35.8"></path>			<path class="insta-gb5" d="M588.7,295.8c-5.4,8.5-0.5,18.2-1.1,20c-0.6,1.7-15.9,1.8-17.1,22.3"></path>			<path class="insta-gb5" d="M608.3,297.8c0.8,20.7-11.9,21-12.8,22.4c-0.9,1.4,3.6,19.7-18.9,26.4"></path>			<path class="insta-gb5" d="M478.9,358.9c-1.4,2.8-15.3-3.2-7.7-14.3c7.5-11.1,20.3-1.6,16.9,2.1"></path>			<path class="insta-gb5" d="M469.1,349.4c-20.1-2.8-17.1-19-17.5-21.1s-15.5,0.9-11.4-23.7"></path>			<path class="insta-gb5" d="M453.6,300.2c12,9.4,7.5,21,8.8,23.1c1.4,2.1,12.7-1,16.4,16.2"></path>			<path class="insta-gb5" d="M438.9,295.8c-12.8-8.4-13.7-31.5,9.9-50.6c10,20.6,3.2,39.8,0.6,44.8"></path>			<path class="insta-gb5" d="M490,427.4c-6.7,44.6-38.7,121.8-42,127.7c-1.6,2.9,30.9,22.1,68,24.8c38.8,2.8,74.5-7.3,72.5-13.3    c-5.7-17.1-29.2-86.9-31-143.1"></path>			<path class="insta-gb5" d="M503.4,435c-1.8,5.1-1.5,15,0,17.9c1.5,3,33.2,3.9,35.7,2.6c2.6-1.3,0-20.4,0-20.4"></path>			<path class="insta-gb5" d="M630.1,384.1c0,0-5-19.1,4.2-30.8c9.2-11.6,22-2.3,15.8,11.1S630.1,384.1,630.1,384.1z"></path>			<path class="insta-gb5" d="M559.8,448.7c28.9-5.3,55.6-26.4,70.4-64.5"></path>			<path class="insta-gb5" d="M405.7,383.3c0,0,10.3-14.9,9.5-24.8c-1.6-20.8-23.3-17.3-20.4,0C397.8,375.8,405.7,383.3,405.7,383.3z"></path>			<path class="insta-gb5" d="M405.7,383.3c4.6,23,33.2,63.2,79.3,66.3"></path>			<path class="insta-gb5" d="M468.5,503.5c28.3,9.9,66.4,9.6,102.2,2.4"></path>			<path class="insta-gb5" d="M464.3,515.2c22.7,11,73,14.5,109.2,1.3"></path>			<path class="insta-gb5" d="M612.2,561.9c3.3,5.6,16.4,21,26.3,20.7c9.9-0.3,6.9-11.5,0-16.8C631.5,560.6,612.2,561.9,612.2,561.9z"></path>			<path class="insta-gb5" d="M551.5,579.1c6,12,14.9,21.7,23.1,21.7c12.8,0,31.3-38.8,37.6-38.8"></path>			<path class="insta-gb5" d="M429.2,563.5c0,0-14.8,11.7-19.4,20.9c-4.6,9.2,3,16.4,9.7,10.5C426.3,589.1,429.2,563.5,429.2,563.5z"></path>			<path class="insta-gb5" d="M481,572.6c-4.1,14.9-8.8,25.9-16.4,25.1c-12.6-1.3-32-37-35.3-34.2"></path>		</g>	</g>	<g>		<g>			<path class="insta-gb6" d="M301.3,501.9c-0.9-8-0.3-14.6,1.3-15.7c0,0,24.5,11.9,29.9,30.3c4.3,14.6,0.4,27.3-7.8,30    c-0.6,0-1.2,0-1.8,0h0c-6-1.5-13.6-17.4-17.9-29.1C303,512.5,301.9,507,301.3,501.9z"></path>			<path class="insta-gb6" d="M324.7,546.5c12.6,0.4,16.7,22.6,6.3,44.5c-10.4,21.9-30,32.1-32.4,29.9c-8.9-8.4-13-16.7-14.1-25.4    c-0.7-5.6-0.2-11.3,1-17.4c3-15,24.5-30.4,37.3-31.4h0C323.5,546.7,324.1,546.7,324.7,546.5z"></path>			<path class="insta-gb0" d="M237.2,502.2c10.6-8.9,24-11.1,35.9-10.1c6.2,0.5,12,1.9,16.8,3.8c1.4,0.6,2.9,1.2,4.4,1.9    c2.3,1.2,4.7,2.5,7,4.2c0.5,5,1.7,10.6,3.5,15.6c4.3,11.7,11.9,27.6,17.9,29.1c-12.9,1.1-34.3,16.4-37.3,31.4    c-1.2,6.1-1.7,11.8-1,17.4l-0.5,0.1c-6.5,0.8-13.2,0.5-19.8-1.2c-3.4-0.8-6.7-2-9.9-3.5c-3-1.4-5.8-2.9-8.5-4.6    c-14.5-9.1-24.4-22.4-26.3-38.2c-1.1-8.7,0.3-18.1,4.7-28C227.6,512.3,232.1,506.5,237.2,502.2z M282.8,530    c0.4-2.3-1.4-4.9-4-4.2c-2.9,0.7-3.1,4.2-1,5.7C279.9,533,282.5,531.7,282.8,530z M276.1,558.9c1.2-2.3-0.5-4.6-2.3-4.7    c-2.3,0-4.6,2.2-3.5,4.6C271.4,561.5,274.9,561.2,276.1,558.9z"></path>			<path class="insta-gb0" d="M286.9,478.2c8,1.4,11.9,13.4,7.4,19.6c-1.5-0.7-3-1.4-4.4-1.9c-4.8-1.8-10.6-3.2-16.8-3.8v0    C272,484.8,278.9,476.8,286.9,478.2z"></path>			<path class="insta-gb4" d="M278.8,525.8c2.6-0.6,4.4,1.9,4,4.2c-0.3,1.8-2.9,3-5,1.5C275.7,530,275.9,526.5,278.8,525.8z"></path>			<path class="insta-gb0" d="M267.6,371.3c12.4-8.4,18.2,6.8,11.5,12.8c-6.7,6-24.1,12.4-24.1,12.4S257.4,378.2,267.6,371.3z"></path>			<path class="insta-gb4" d="M273.8,554.2c1.8,0,3.4,2.4,2.3,4.7c-1.2,2.3-4.6,2.6-5.8-0.1C269.2,556.4,271.5,554.2,273.8,554.2z"></path>			<path class="insta-gb0" d="M264.2,594.3L264.2,594.3c-0.6,4-7.8,11.3-15,8.8c-6-2.1-7.3-11.7-3.5-16.7l0.1-0.1c2.7,1.7,5.5,3.2,8.5,4.6    C257.5,592.3,260.9,593.4,264.2,594.3z"></path>			<path class="insta-gb1" d="M234.3,441.5c7.4,3.1,13.8,6.4,14.2,8c0.8,3.9-7.6,44.1-11.3,52.7c-5.1,4.3-9.6,10.1-13,17.8    c-4.4,9.9-5.7,19.3-4.7,28l-0.4,0c0,0-21.8,32.1-25.7,33.1c-4,0.9-35.9-12.5-36.8-16c-1-3.5,13.6-22.3,12.6-26.5    c-0.5-2-13.5-8.9-26.8-16c2.6-2.2-5.6-18.4-4.1-21.9c1.5-3.5,20,2.5,21.9,0c2-2.5-11-19.6-8.6-23.2c2.4-3.6,21.2,3.6,23.7,0.5    c2.5-3.1-10.2-18.2-8.2-21.2c2-3,17.9-2.6,19.9-5.9c6,4.4,11.4,7.9,13.6,7.5c5.4-0.9,7.1-23.6,10-24.6    C212.3,433.4,224.3,437.3,234.3,441.5z"></path>			<path class="insta-gb0" d="M203.2,631.6c9.2,0.8,9.4,13.9-1.5,13.8c-9.5-0.1-17.7-9.4-19.4-17.6C190.4,630.1,198.1,631.1,203.2,631.6z"></path>			<path class="insta-gb2" d="M187,451c-2,3.3-17.9,2.9-19.9,5.9c-2,3,10.7,18.1,8.2,21.2c-2.5,3.1-21.2-4.1-23.7-0.5    c-2.4,3.6,10.6,20.7,8.6,23.2c-2,2.5-20.4-3.5-21.9,0c-1.5,3.5,6.7,19.6,4.1,21.9c-14.5-7.7-29.4-15.7-29.4-18    c0-0.6,0.9-2.3,2.5-4.8c8.8-14,38.7-53,47.7-61.5v0c1.1-1,1.9-1.6,2.3-1.6C168.1,436.5,178.1,444.6,187,451z"></path>			<path class="insta-gb7" d="M163.2,438.4L163.2,438.4c-9.1,8.5-38.9,47.5-47.7,61.5C101.2,492,71,447.4,72,444.2    c0.5-1.7,7.5-7.6,14.5-12.6c6.2-4.5,12.4-8.3,14.2-8c3.8,0.6,11.4,15.4,15.3,15.9c3.1,0.4,6.6-1.7,7.1-6.7    c0.2-2.6-6.3-18-6.3-19.5c0-1,12.6-9.3,22-14.8c4.8-2.8,8.8-4.9,9.8-4.9C151.5,393.6,159.7,428.3,163.2,438.4z"></path>			<path class="insta-gb8" d="M155.3,334.9c-0.2,0.4-0.4,0.8-0.6,1.2v0c-3.1,3.6-17.6,11.3-23.6,14.3c-11.6,5.8-16.6-11.8-3.1-15.9    C141.5,330.5,154.3,330.9,155.3,334.9z"></path>			<path class="insta-gb8" d="M74.2,377.6C74.2,377.6,74.2,377.6,74.2,377.6c-1.5,6-7.8,17.6-11.9,21.1c-9.3,7.7-19.7,2.4-15.7-6.1    c4-8.5,23.2-21.1,27.5-18.4C74.1,375.2,74.1,376.4,74.2,377.6z"></path>		</g>		<g>			<path class="insta-gb5" d="M284.1,595.5c-9.8,1.3-20.2-0.2-29.8-4.7c-27.8-12.9-43.8-39.6-30.1-70.7c14.2-32.2,47.2-31.2,65.7-24.2    c3.7,1.4,7.6,3.4,11.4,6.1"></path>			<path class="insta-gb5" d="M294.3,497.8c4.5-6.1,0.6-18.2-7.4-19.6c-8-1.4-14.9,6.6-13.8,13.9"></path>			<path class="insta-gb5" d="M264.2,594.3c-0.6,4-7.8,11.3-15,8.8c-6-2.1-7.3-11.7-3.5-16.7"></path>			<path d="M282.8,530c-0.3,1.8-2.9,3-5,1.5c-2.1-1.5-1.9-5,1-5.7C281.4,525.1,283.2,527.7,282.8,530z"></path>			<path d="M273.8,554.2c1.8,0,3.4,2.4,2.3,4.7c-1.2,2.3-4.6,2.6-5.8-0.1C269.2,556.4,271.5,554.2,273.8,554.2z"></path>			<path class="insta-gb5" d="M264.6,517.1c-5.1,0.1-18.6,4.2-21.5,18c-3.3,15.5,7.9,23.7,12.1,26.1"></path>			<path class="insta-gb5" d="M324.7,546.5c-6.2,2-15-16.1-19.8-29c-4.8-12.9-4.8-29.5-2.3-31.3c0,0,24.5,11.9,29.9,30.3    C336.8,531.1,332.9,543.8,324.7,546.5z"></path>			<path class="insta-gb5" d="M298.6,620.8c2.3,2.2,22-8,32.4-29.9c10.4-21.9,6.2-44-6.3-44.5c-12.6-0.4-36.1,15.7-39.2,31.5    C282.4,593.7,284.1,607.2,298.6,620.8z"></path>			<path class="insta-gb5" d="M219.1,548c0,0-21.8,32.1-25.7,33.1c-4,0.9-35.9-12.5-36.8-16c-0.9-3.5,13.6-22.3,12.6-26.5    c-0.9-4.1-56.3-29.6-56.3-34c0-4.4,48-67.5,52.5-67.9c4.4-0.4,29.7,22.7,35.1,21.8c5.4-0.9,7.1-23.6,10-24.6    c3-1,37,11.6,37.9,15.6c0.9,4-7.6,44.1-11.3,52.7"></path>			<path class="insta-gb5" d="M163.2,438.4c-3.5-10.1-11.7-44.8-14.7-44.8s-31.7,18.3-31.8,19.7c0,1.5,6.5,16.9,6.3,19.5    c-0.4,4.9-4,7-7.1,6.7c-3.9-0.5-11.4-15.2-15.3-15.9C96.9,423,73.1,441,72,444.2c-1,3.2,29.2,47.8,43.4,55.7"></path>			<path class="insta-gb5" d="M182.3,627.7c8,2.4,15.8,3.4,20.8,3.8c9.2,0.8,9.4,13.9-1.5,13.8C192.2,645.2,184,636,182.3,627.7z"></path>			<path class="insta-gb5" d="M182.3,627.7c-2.7-5.6-5.5-34.3-0.9-48.9"></path>			<path class="insta-gb5" d="M255,396.5c0,0,2.4-18.3,12.6-25.2c12.4-8.4,18.2,6.8,11.5,12.8C272.4,390,255,396.5,255,396.5z"></path>			<path class="insta-gb5" d="M234.3,441.5c3.5-15.1,14.8-36.8,20.7-45"></path>			<path class="insta-gb5" d="M155.3,334.9c0.6,2.5-17.3,12.1-24.1,15.6c-11.6,5.8-16.6-11.8-3.1-15.9    C141.5,330.5,154.3,330.9,155.3,334.9z"></path>			<path class="insta-gb5" d="M74,374.1c2.6,1.7-6.4,20.1-11.8,24.5c-9.3,7.7-19.7,2.4-15.7-6.1C50.6,384.1,69.8,371.5,74,374.1z"></path>			<path class="insta-gb5" d="M155.3,334.9c-5.7,12.2-19.8,41.7-16.6,63.6"></path>			<path class="insta-gb5" d="M74,374.1c0.2,12.5,4.3,39.9,12.5,57.4"></path>			<path class="insta-gb5" d="M142.4,522.7c2.7-2.1-5.6-18.4-4.1-21.9c1.5-3.5,20,2.5,21.9,0s-11-19.6-8.6-23.2c2.4-3.6,21.2,3.6,23.7,0.5    c2.5-3.1-10.1-18.2-8.2-21.2c2-3,17.9-2.6,19.9-5.9"></path>		</g>	</g>	<g>		<g>			<path class="insta-gb7" d="M889.1,321.3c16,0,17.2,11.3,8.1,13.3c-6.5,1.4-20.9-3.9-29.3-2C868.1,328.9,880.2,321.3,889.1,321.3z"></path>			<path class="insta-gb0" d="M860.7,621.7c5.4,5.8-3.5,11.7-9.9,11.9c-6.4,0.3-18.7-4.4-20.5-9.9C844,623.8,855.3,615.9,860.7,621.7z"></path>			<path class="insta-gb8" d="M864.5,412.4c0,1.7-30.7,61.9-30.7,61.9l-0.1,0c-1.1-5.1-6.6-9.2-18.6-4c5.6-12.5-10.5-28.2-24.7-11.1    c-4.5-10.8-18.6-14.3-27.4-8c0.6-11.2,3.8-53.8,5.3-54.8c1.5-1,35.5,1.7,37.5,3c2,1.2-1.5,19.2,0,21.9c1.5,2.7,10.8,4.2,12.1,2.7    c1.2-1.5,7.8-19.3,9.9-20.6C830,402.3,864.5,410.6,864.5,412.4z"></path>			<path class="insta-gb0" d="M840.1,526c1,6.3-6.8,12-13.1,11l-0.1,0c0.2-3.1,0.2-6.4,0-9.6c-0.2-3.6-0.8-7-1.6-10.4    C829.1,515.6,838.9,518.5,840.1,526z"></path>			<path class="insta-gb9" d="M833.7,474.3c0.7,3.3-0.3,6.9-2.5,8.8c17.2,2.8,17.8,37.3-9.3,24.4c-7.2,9.7-20.9,6.1-26.9-2.5    c-5.2,11.8-21.5,14.3-28.9,3.4c2.3,12.7-11.1,16.7-18.3,10.1c3.3,18.7-21.2,21.2-21.2,7.7c-11,10.7-26.5-11.1-9.7-22    c-11.3-12.9-1.2-31.3,16.2-27.1c-3.3-13.6,13.8-22.6,23-14.3c1-5.5,3.6-9.3,7-11.8c8.8-6.3,22.8-2.8,27.4,8    c14.2-17.2,30.3-1.4,24.7,11.1C827.2,465.1,832.6,469.2,833.7,474.3z"></path>			<path class="insta-gb0" d="M826.9,527.4c0.2,3.3,0.2,6.5,0,9.6c-0.7,10.7-3.7,20.7-9.1,28.9c-7.9,12-20.8,20.2-38.8,21.6    c-11.7,0.9-21.1-1.7-28.6-6.4c-9.1-5.7-15.3-14.4-19.2-23.3c-2.5-5.7-4-11.5-4.7-16.6c-0.2-1.5-0.3-3.1-0.4-4.8    c-0.1-3.2,0.1-6.6,0.6-10.1c0,13.5,24.5,11,21.2-7.7c7.2,6.6,20.6,2.6,18.3-10.1c7.4,10.8,23.6,8.4,28.9-3.4    c5.9,8.5,19.7,12.2,26.9,2.5c1.4,3,2.5,6.2,3.4,9.5C826.1,520.4,826.7,523.9,826.9,527.4z M793.1,532.4c1.8-2.3-0.1-5.2-2.7-5.1    c-2.6,0-3.8,2.6-3,4.2C788.4,533.5,791.4,534.5,793.1,532.4z M764.5,539.7c0.4-2.6-2-4.2-3.7-3.7c-2.2,0.7-3.6,3.6-1.8,5.5    C761,543.7,764.1,542.3,764.5,539.7z"></path>			<path class="insta-gb4" d="M790.4,527.3c2.6-0.1,4.5,2.8,2.7,5.1c-1.6,2.1-4.6,1.1-5.7-0.9C786.5,529.9,787.8,527.3,790.4,527.3z"></path>			<path class="insta-gb7" d="M770.8,316.9c9.8,4.6,9.2,15.8,8.3,18.5c-7.2-5.1-36.1-7.4-36.1-16.7C743,313.4,763.1,313.3,770.8,316.9z"></path>			<path class="insta-gb4" d="M760.8,536.1c1.7-0.6,4,1.1,3.7,3.7c-0.4,2.6-3.5,4-5.5,1.8C757.2,539.6,758.6,536.8,760.8,536.1z"></path>			<path class="insta-gb0" d="M745.4,628c0.2,9.6-12.8,22.9-21.7,22.7c-8.9-0.2-12.6-9.4-3.4-14C729.4,631.9,743,631.7,745.4,628z"></path>			<path class="insta-gb0" d="M726.4,541.2c0.7,5.1,2.2,10.9,4.7,16.6c-5.8,4.4-16.2,2.1-18.8-5.6c-2.6-7.7,6.2-16.9,13.7-15.8    C726.1,538,726.2,539.6,726.4,541.2z"></path>		</g>		<g>			<path class="insta-gb5" d="M821.9,507.5c2.8,6.1,4.6,12.8,5,19.9c1.9,30.6-14,57.4-48,60.1c-35.1,2.8-49.9-26.7-52.5-46.3    c-0.6-4.5-0.6-9.6,0.2-14.9"></path>			<path class="insta-gb5" d="M726,536.4c-7.5-1-16.3,8.1-13.7,15.8c2.6,7.7,12.9,10,18.8,5.6"></path>			<path class="insta-gb5" d="M825.2,517c3.8-1.4,13.6,1.5,14.8,9c1,6.3-6.8,12-13.1,11"></path>			<path d="M760.8,536.1c1.7-0.6,4,1.1,3.7,3.7c-0.4,2.6-3.5,4-5.5,1.8C757.2,539.6,758.6,536.8,760.8,536.1z"></path>			<path d="M787.4,531.5c-0.8-1.6,0.4-4.2,3-4.2c2.6-0.1,4.5,2.8,2.7,5.1C791.4,534.5,788.4,533.5,787.4,531.5z"></path>			<path class="insta-gb5" d="M759.1,556.2c2.5,4.4,12.5,14.4,26,10.4c15.2-4.5,17.1-18.2,17.2-23"></path>			<path class="insta-gb5" d="M733.1,477.2c-3.3-13.6,13.8-22.6,23-14.3c3.6-19.6,28.1-18.8,34.4-3.8c14.2-17.2,30.3-1.4,24.7,11.1    c19.7-8.5,21.7,7.9,16,12.8c17.2,2.8,17.8,37.3-9.3,24.4c-7.2,9.7-20.9,6.1-26.8-2.5c-5.2,11.8-21.5,14.3-28.9,3.4    c2.3,12.7-11.1,16.7-18.3,10.1c3.3,18.7-21.2,21.2-21.2,7.7c-11,10.7-26.5-11.1-9.7-22C705.5,491.5,715.6,473,733.1,477.2z"></path>			<path class="insta-gb5" d="M750.3,581.1c-1.6,5-5.1,37.3-4.8,46.9c0.2,9.6-12.8,22.9-21.7,22.7c-8.9-0.2-12.6-9.4-3.4-14    c9.1-4.7,22.7-4.9,25.1-8.6"></path>			<path class="insta-gb5" d="M817.7,565.9c1.9,4.2,11,52.5,12.7,57.9c1.7,5.4,14,10.1,20.4,9.9c6.4-0.2,15.3-6.1,9.9-11.9    c-5.4-5.8-16.8,2.1-30.3,2.1"></path>			<path class="insta-gb5" d="M763.1,451.2c0.6-11.2,3.8-53.8,5.3-54.8c1.5-1,35.5,1.7,37.5,3c2,1.2-1.5,19.2,0,21.9    c1.5,2.7,10.8,4.2,12.1,2.7c1.2-1.5,7.8-19.3,9.9-20.5c2.2-1.2,36.6,7.1,36.6,8.9c0,1.7-30.7,61.9-30.7,61.9"></path>			<path class="insta-gb5" d="M787.3,397c-3.7-9.5-15.8-25.4-16.5-32.8c-0.7-7.4,7.4-26.2,8.2-28.9c0.9-2.7,1.5-13.9-8.3-18.5    c-7.7-3.6-27.8-3.5-27.8,1.7c0,9.4,28.9,11.7,36.1,16.8"></path>			<path class="insta-gb5" d="M849.9,407.3c2.4-3.5,17.7-26.5,20.2-35.4c2.5-8.9-2.5-35.7-2.2-39.4c0.2-3.6,12.3-11.3,21.2-11.3    c16,0,17.2,11.3,8.1,13.3c-6.5,1.4-20.9-3.9-29.3-2"></path>		</g>	</g>	<g>		<g>			<path class="insta-gb0" d="M574.1,129.8c0.8,4.2,0.5,8.5-1,12.3c8.5-2.7,15.7-2.7,21.7-1.3c8.6,2,14.9,6.9,19.4,10.6    c7.6,6.4,17.8,23.9,8.3,44.1c-12,25.6-38.5,24.2-48,8.4c-3.1,12.9-15.5,24.9-41,22c-25.5-2.8-35.5-20.5-29.4-42.2    c-18.7,16.8-53.3,10.2-59.6-2.9c-6.3-13.1-5.5-32.4,14.8-40.9c-17.6-12.8-10.7-35.1,4.6-47.9c16.1-13.5,50.1-7.9,57.2,24.2    c9.3-10.5,19.1-13.6,27.7-12.3c6,0.9,11.4,4,15.8,8.2C569.5,117.1,572.9,123.4,574.1,129.8z"></path>			<path class="insta-gb1" d="M881.9,152.5c-9.9,1.1-19.5,6.6-24.4,17.1c-4.5-10.4-11.7-16.9-19.9-20.1c-7.2-29.9-45.3-75.4-117.3-92.1    c-71-16.5-113.2,13.6-155.7,54.9c-4.3-4.2-9.7-7.3-15.8-8.2c34.9-57.2,95.9-82.3,164.3-73.8C794.3,40.4,861.9,95.2,881.9,152.5z"></path>			<path class="insta-gb2" d="M837.6,149.6c-8.6-3.4-18.4-3.3-27.3-0.7c-13.6-32.4-55.4-61.8-103.6-69.3c-57.9-9.1-111.7,28.3-132.6,50.2    c-1.1-6.4-4.6-12.7-9.5-17.5c42.4-41.2,84.7-71.4,155.7-54.9C792.3,74.2,830.4,119.7,837.6,149.6z"></path>			<path class="insta-gb7" d="M810.3,148.9c-8.5,2.5-16.3,7.3-21.5,13.5C743.6,99.1,664.7,81.4,595,139.7l-0.2,1.1    c-6.1-1.4-13.3-1.4-21.7,1.3c1.5-3.8,1.8-8.1,1-12.3c20.9-21.9,74.7-59.3,132.6-50.2C754.9,87.1,796.8,116.5,810.3,148.9z"></path>			<path class="insta-gb0" d="M881.9,152.5c18.5-2.1,38.4,11.2,32,35.9c31.8-0.4,40.8,32.8,31.9,50.5c-8.9,17.6-40.7,29.7-54.2,3.6    c-6.9,24.5-48.8,27.8-53.7-12.1c-8.3,31.8-51.8,22.8-48.9-3c-22.3,10.4-61.1-4.2-54.8-30.1c7.6-31.4,38.4-25.1,47.6-18    c0.2-6.2,2.8-12.1,7-17c5.3-6.2,13-11,21.5-13.5c8.9-2.6,18.7-2.7,27.3,0.7c8.2,3.2,15.4,9.7,19.9,20.1    C862.4,159.2,871.9,153.6,881.9,152.5z"></path>		</g>		<g>			<path class="insta-gb10" d="M573.1,142.1c8.7-22-23.9-57.3-51.9-25.7C514,84.2,480,78.7,464,92.1c-15.3,12.8-22.2,35.1-4.6,47.9    c-20.3,8.5-21.1,27.8-14.8,40.9c6.3,13.1,40.9,19.7,59.6,2.9c-6.2,21.6,3.9,39.3,29.4,42.1c25.5,2.8,37.8-9.1,41-22    c9.6,15.7,36,17.2,48-8.4c9.5-20.2-0.8-37.7-8.3-44.1C606.6,145,593.6,135.5,573.1,142.1z"></path>			<path class="insta-gb10" d="M781.8,179.3c0.9-29.9,58.2-50.1,75.7-9.6c14-30.1,66.2-19.3,56.4,18.8c31.8-0.4,40.8,32.8,31.9,50.5    c-8.9,17.6-40.7,29.7-54.2,3.6c-6.9,24.5-48.8,27.8-53.7-12.1c-8.3,31.8-51.8,22.8-48.9-3c-22.3,10.4-61.1-4.2-54.8-30.1    C741.8,165.9,772.5,172.2,781.8,179.3z"></path>			<path class="insta-gb10" d="M548.9,104.1c34.9-57.2,95.9-82.3,164.3-73.8c81.1,10.1,148.7,64.9,168.7,122.2"></path>			<path class="insta-gb10" d="M595,139.7c69.6-58.3,148.5-40.6,193.8,22.6"></path>			<path class="insta-gb10" d="M564.6,112.3c42.4-41.3,84.7-71.4,155.7-54.9c72,16.7,110.1,62.3,117.3,92.2"></path>			<path class="insta-gb10" d="M574.1,129.8c20.9-21.9,74.7-59.3,132.6-50.2c48.2,7.6,90.1,37,103.6,69.3"></path>		</g>	</g>	<g id="XMLID_3_">		<g>			<path class="insta-gb2" d="M219.9,102.3c18.4,11.5,32.8,45.1,14.7,66.9s-44.5,27.6-69.7,10.7c-25.2-16.9-23.5-47.4-9.7-67    C168.5,94.2,197.7,88.4,219.9,102.3z"></path>		</g>		<g>			<path class="insta-gb10" d="M219.9,102.3c18.4,11.5,32.8,45.1,14.7,66.9s-44.5,27.6-69.7,10.7c-25.2-16.9-23.5-47.4-9.7-67    C168.5,94.2,197.7,88.4,219.9,102.3z"></path>			<line class="insta-gb10" x1="245" y1="99.2" x2="279.6" y2="70.9"></line>			<line class="insta-gb10" x1="267.1" y1="143.9" x2="309.9" y2="138.8"></line>			<line class="insta-gb10" x1="247.4" y1="184.6" x2="272.8" y2="211.7"></line>			<line class="insta-gb10" x1="203.8" y1="207.5" x2="209.3" y2="253.2"></line>			<line class="insta-gb10" x1="163.1" y1="199.5" x2="143.3" y2="242.8"></line>			<line class="insta-gb10" x1="130.9" y1="170.4" x2="88.1" y2="184.6"></line>			<line class="insta-gb10" x1="132.3" y1="122.2" x2="88.1" y2="110"></line>			<line class="insta-gb10" x1="163.6" y1="77.9" x2="145.2" y2="35.8"></line>			<line class="insta-gb10" x1="206.3" y1="71.7" x2="216.6" y2="26.3"></line>		</g>	</g>	<g>		<g>			<path class="insta-gb1" d="M691,717c0,0,133.8,4.1,144.3-1.8c0,0,13-32.2,20.3-40.3c-17,4.4-36.4,23.2-36.4,23.2s-5.7-20.7-10.9-28.6    c-6.7,10.5-19.7,26.8-19.7,26.8s-16.3-17.9-23.7-26.8c-9.6,14-23.7,32.7-23.7,32.7S727,680.5,722,662.9    c-6.8,12.2-14.9,37.9-14.9,37.9s-14.3-22.7-32.9-37.9c0,0-16.4,28.6-18,38.5c-13.4-23.6-28.8-45.3-40.8-58.1    c-2.2,25.6-5.1,43.4-4.1,57.2c-9.9-29.6-25.7-34-27-50.7c-12.1,4.9-17.7,37-20,49.8c-2.3-15.8-17.7-47.3-17.7-47.3    s-24.3,32.5-23.7,44.3c-14.2-3-31.1-26.7-31-33.6c-9.8,14.8-22.2,29.6-24.3,41.4c-12-12.8-29.1-36.5-29.9-48.3    c-9.7,6.9-19.6,33.5-18.6,47.3c-8.9-12.6-11.9-28.6-18.2-38.4c-9.5,11.2-20.7,22.2-21.3,35c-11.5-14.8-11.2-23.8-14.6-42.9    c-12.9,3.9-23.7,27.6-25.7,38.4c-7.9-10.8-21.9-20.7-38.3-47.3c-9.8,15.6-16.4,32.7-18.6,42.5c-11.1-21.8-24.7-21.8-39.3-43.5    c-12.9,28.3-14.6,43.4-18.8,54.2c-13.1-26.6-27.2-36.9-39.2-48.7c-7.4,31.8-21.1,35.1-20.7,45.8c-9.3-12-22.3-26.1-28.7-38.9    c-13.3,23.6-15.3,39.9-15.3,39.9s-8.9-19.7-38.4-41.4c10.3,31.4,8.3,49.4,5.8,61C139,729.6,691,717,691,717z"></path>		</g>		<g>			<path class="insta-gb5" d="M691,717c0,0,133.8,4.1,144.3-1.8c0,0,13-32.2,20.3-40.3c-17,4.4-36.4,23.2-36.4,23.2s-5.7-20.7-10.9-28.6    c-6.7,10.5-19.7,26.8-19.7,26.8s-16.3-17.9-23.7-26.8c-9.6,14-23.7,32.7-23.7,32.7S727,680.5,722,662.9    c-6.8,12.2-14.9,37.9-14.9,37.9s-14.3-22.7-32.9-37.9c0,0-16.4,28.6-18,38.5c-13.4-23.6-28.8-45.3-40.8-58.1    c-2.2,25.6-5.1,43.4-4.1,57.2c-9.9-29.6-25.7-34-27-50.7c-12.1,4.9-17.7,37-20,49.8c-2.3-15.8-17.7-47.3-17.7-47.3    s-24.3,32.5-23.7,44.3c-14.2-3-31.1-26.7-31-33.6c-9.8,14.8-22.2,29.6-24.3,41.4c-12-12.8-29.1-36.5-29.9-48.3    c-9.7,6.9-19.6,33.5-18.6,47.3c-8.9-12.6-11.9-28.6-18.2-38.4c-9.5,11.2-20.7,22.2-21.3,35c-11.5-14.8-11.2-23.8-14.6-42.9    c-12.9,3.9-23.7,27.6-25.7,38.4c-7.9-10.8-21.9-20.7-38.3-47.3c-9.8,15.6-16.4,32.7-18.6,42.5c-11.1-21.8-24.7-21.8-39.3-43.5    c-12.9,28.3-14.6,43.4-18.8,54.2c-13.1-26.6-27.2-36.9-39.2-48.7c-7.4,31.8-21.1,35.1-20.7,45.8c-9.3-12-22.3-26.1-28.7-38.9    c-13.3,23.6-15.3,39.9-15.3,39.9s-8.9-19.7-38.4-41.4c10.3,31.4,8.3,49.4,5.8,61C139,729.6,691,717,691,717z"></path>		</g>	</g></g></svg>