<?xml version="1.0" standalone="no"?>
<svg xmlns:xlink="http://www.w3.org/1999/xlink" id="wave" style="transform:rotate(0deg); transition: 0.3s" viewBox="0 0 1440 240" version="1.1" xmlns="http://www.w3.org/2000/svg"><defs><linearGradient id="sw-gradient-0" x1="0" x2="0" y1="1" y2="0"><stop stop-color="rgba(255, 255, 255, 1)" offset="0%"/><stop stop-color="rgba(255, 255, 255, 1)" offset="100%"/></linearGradient></defs><path style="transform:translate(0, 0px); opacity:1" fill="url(#sw-gradient-0)" d="M0,216L20,196C40,176,80,136,120,112C160,88,200,80,240,100C280,120,320,168,360,168C400,168,440,120,480,120C520,120,560,168,600,188C640,208,680,200,720,176C760,152,800,112,840,96C880,80,920,88,960,108C1000,128,1040,160,1080,144C1120,128,1160,64,1200,52C1240,40,1280,80,1320,80C1360,80,1400,40,1440,44C1480,48,1520,96,1560,104C1600,112,1640,80,1680,84C1720,88,1760,128,1800,156C1840,184,1880,200,1920,176C1960,152,2000,88,2040,60C2080,32,2120,40,2160,64C2200,88,2240,128,2280,136C2320,144,2360,120,2400,112C2440,104,2480,112,2520,96C2560,80,2600,40,2640,40C2680,40,2720,80,2760,108C2800,136,2840,152,2860,160L2880,168L2880,240L2860,240C2840,240,2800,240,2760,240C2720,240,2680,240,2640,240C2600,240,2560,240,2520,240C2480,240,2440,240,2400,240C2360,240,2320,240,2280,240C2240,240,2200,240,2160,240C2120,240,2080,240,2040,240C2000,240,1960,240,1920,240C1880,240,1840,240,1800,240C1760,240,1720,240,1680,240C1640,240,1600,240,1560,240C1520,240,1480,240,1440,240C1400,240,1360,240,1320,240C1280,240,1240,240,1200,240C1160,240,1120,240,1080,240C1040,240,1000,240,960,240C920,240,880,240,840,240C800,240,760,240,720,240C680,240,640,240,600,240C560,240,520,240,480,240C440,240,400,240,360,240C320,240,280,240,240,240C200,240,160,240,120,240C80,240,40,240,20,240L0,240Z"/></svg>