<svg id="visual" viewBox="0 0 960 540" width="960" height="540" xmlns="http://www.w3.org/2000/svg" xmlns:xlink="http://www.w3.org/1999/xlink" version="1.1"><path d="M0 194L26.7 181.5C53.3 169 106.7 144 160 134.3C213.3 124.7 266.7 130.3 320 125.3C373.3 120.3 426.7 104.7 480 100.5C533.3 96.3 586.7 103.7 640 100C693.3 96.3 746.7 81.7 800 95.2C853.3 108.7 906.7 150.3 933.3 171.2L960 192L960 0L933.3 0C906.7 0 853.3 0 800 0C746.7 0 693.3 0 640 0C586.7 0 533.3 0 480 0C426.7 0 373.3 0 320 0C266.7 0 213.3 0 160 0C106.7 0 53.3 0 26.7 0L0 0Z" fill="#0e2365" stroke-linecap="round" stroke-linejoin="miter"></path></svg>