<svg id="visual" viewBox="0 0 960 540" width="960" height="540" xmlns="http://www.w3.org/2000/svg" xmlns:xlink="http://www.w3.org/1999/xlink" version="1.1"><path d="M0 372L26.7 368.2C53.3 364.3 106.7 356.7 160 356C213.3 355.3 266.7 361.7 320 372.8C373.3 384 426.7 400 480 414.8C533.3 429.7 586.7 443.3 640 436.7C693.3 430 746.7 403 800 387.2C853.3 371.3 906.7 366.7 933.3 364.3L960 362L960 541L933.3 541C906.7 541 853.3 541 800 541C746.7 541 693.3 541 640 541C586.7 541 533.3 541 480 541C426.7 541 373.3 541 320 541C266.7 541 213.3 541 160 541C106.7 541 53.3 541 26.7 541L0 541Z" fill="#fcf9f4" stroke-linecap="round" stroke-linejoin="miter"></path></svg>