<svg id="visual" viewBox="0 0 960 540" width="960" height="540" xmlns="http://www.w3.org/2000/svg" xmlns:xlink="http://www.w3.org/1999/xlink" version="1.1"><path d="M0 166L26.7 169.8C53.3 173.7 106.7 181.3 160 182C213.3 182.7 266.7 176.3 320 165.2C373.3 154 426.7 138 480 123.2C533.3 108.3 586.7 94.7 640 101.3C693.3 108 746.7 135 800 150.8C853.3 166.7 906.7 171.3 933.3 173.7L960 176L960 0L933.3 0C906.7 0 853.3 0 800 0C746.7 0 693.3 0 640 0C586.7 0 533.3 0 480 0C426.7 0 373.3 0 320 0C266.7 0 213.3 0 160 0C106.7 0 53.3 0 26.7 0L0 0Z" fill="#fcf9f4" stroke-linecap="round" stroke-linejoin="miter"></path></svg>